<?xml version="1.0" encoding="UTF-8" standalone="no"?>
<!-- Created with Inkscape (http://www.inkscape.org/) -->
<svg
   xmlns:svg="http://www.w3.org/2000/svg"
   xmlns="http://www.w3.org/2000/svg"
   version="1.0"
   width="1133.8583"
   height="374.88187"
   id="svg2">
  <defs
     id="defs4">
    <clipPath
       id="clipPath2349">
      <path
         d="M -85.5,-19 L -85.5,19 L 85.5,19 L 85.5,-19 L -85.5,-19 z"
         id="path2351" />
    </clipPath>
    <clipPath
       id="clipPath2341">
      <path
         d="M 0,0 L 603.7795,0 L 603.7795,841.8898 L 0,841.8898 L 0,0 z"
         id="path2343" />
    </clipPath>
    <clipPath
       id="clipPath2926">
      <path
         d="M 0.015,840.99 L 595.005,840.99 L 595.005,0 L 0.015,0 L 0.015,840.99 z"
         id="path2928" />
    </clipPath>
    <clipPath
       id="clipPath2918">
      <path
         d="M 0,841 L 595,841 L 595,0 L 0,0 L 0,841 z"
         id="path2920" />
    </clipPath>
    <clipPath
       id="clipPath2694">
      <path
         d="M 0.015,840.99 L 595.005,840.99 L 595.005,0 L 0.015,0 L 0.015,840.99 z"
         id="path2696" />
    </clipPath>
    <clipPath
       id="clipPath2686">
      <path
         d="M 0,841 L 595,841 L 595,0 L 0,0 L 0,841 z"
         id="path2688" />
    </clipPath>
    <clipPath
       id="clipPath2678">
      <path
         d="M 405.35,120.15 L 510.24,120.15 L 510.24,91.8 L 405.35,91.8 L 405.35,120.15 z"
         id="path2680" />
    </clipPath>
    <clipPath
       id="clipPath2498">
      <path
         d="M 0.015,840.99 L 595.005,840.99 L 595.005,0 L 0.015,0 L 0.015,840.99 z"
         id="path2500" />
    </clipPath>
    <clipPath
       id="clipPath2490">
      <path
         d="M 0,841 L 595,841 L 595,0 L 0,0 L 0,841 z"
         id="path2492" />
    </clipPath>
    <clipPath
       id="clipPath2482">
      <path
         d="M 51.02,680.71 L 595.28,680.71 L 595.28,126.67 L 51.02,126.67 L 51.02,680.71 z"
         id="path2484" />
    </clipPath>
    <clipPath
       id="clipPath2464">
      <path
         d="M 0.015,840.99 L 595.005,840.99 L 595.005,0 L 0.015,0 L 0.015,840.99 z"
         id="path2466" />
    </clipPath>
    <clipPath
       id="clipPath2456">
      <path
         d="M 0,841 L 595,841 L 595,0 L 0,0 L 0,841 z"
         id="path2458" />
    </clipPath>
    <clipPath
       id="clipPath5050">
      <path
         d="M -610.389,657.405 L -56.916,657.405 L -56.916,664.488 L -610.389,664.488 L -610.389,657.405 z"
         id="path5052" />
    </clipPath>
    <clipPath
       id="clipPath5036">
      <path
         d="M 303.624,657.405 L 362.034,657.405 L 362.034,664.488 L 303.624,664.488 L 303.624,657.405 z"
         id="path5038" />
    </clipPath>
    <clipPath
       id="clipPath5028">
      <path
         d="M 303.624,657.405 L 362.034,657.405 L 362.034,664.488 L 303.624,664.488 L 303.624,657.405 z"
         id="path5030" />
    </clipPath>
    <clipPath
       id="clipPath5016">
      <path
         d="M 271.575,657.405 L 329.985,657.405 L 329.985,664.488 L 271.575,664.488 L 271.575,657.405 z"
         id="path5018" />
    </clipPath>
    <clipPath
       id="clipPath5008">
      <path
         d="M 271.575,657.405 L 329.985,657.405 L 329.985,664.488 L 271.575,664.488 L 271.575,657.405 z"
         id="path5010" />
    </clipPath>
    <clipPath
       id="clipPath4996">
      <path
         d="M 204.345,657.405 L 262.755,657.405 L 262.755,664.488 L 204.345,664.488 L 204.345,657.405 z"
         id="path4998" />
    </clipPath>
    <clipPath
       id="clipPath4988">
      <path
         d="M 204.345,657.405 L 262.755,657.405 L 262.755,664.488 L 204.345,664.488 L 204.345,657.405 z"
         id="path4990" />
    </clipPath>
    <clipPath
       id="clipPath4972">
      <path
         d="M 375.417,657.405 L 433.827,657.405 L 433.827,664.488 L 375.417,664.488 L 375.417,657.405 z"
         id="path4974" />
    </clipPath>
    <clipPath
       id="clipPath4964">
      <path
         d="M 375.417,657.405 L 433.827,657.405 L 433.827,664.488 L 375.417,664.488 L 375.417,657.405 z"
         id="path4966" />
    </clipPath>
    <clipPath
       id="clipPath4950">
      <path
         d="M 88.236,657.405 L 146.646,657.405 L 146.646,664.488 L 88.236,664.488 L 88.236,657.405 z"
         id="path4952" />
    </clipPath>
    <clipPath
       id="clipPath4942">
      <path
         d="M 88.236,657.405 L 146.646,657.405 L 146.646,664.488 L 88.236,664.488 L 88.236,657.405 z"
         id="path4944" />
    </clipPath>
    <clipPath
       id="clipPath4928">
      <path
         d="M 40.806,657.405 L 99.216,657.405 L 99.216,664.488 L 40.806,664.488 L 40.806,657.405 z"
         id="path4930" />
    </clipPath>
    <clipPath
       id="clipPath4920">
      <path
         d="M 40.806,657.405 L 99.216,657.405 L 99.216,664.488 L 40.806,664.488 L 40.806,657.405 z"
         id="path4922" />
    </clipPath>
    <clipPath
       id="clipPath4906">
      <path
         d="M 11.313,657.405 L 69.723,657.405 L 69.723,664.488 L 11.313,664.488 L 11.313,657.405 z"
         id="path4908" />
    </clipPath>
    <clipPath
       id="clipPath4898">
      <path
         d="M 11.313,657.405 L 69.723,657.405 L 69.723,664.488 L 11.313,664.488 L 11.313,657.405 z"
         id="path4900" />
    </clipPath>
    <clipPath
       id="clipPath4886">
      <path
         d="M -36.117,657.405 L 22.293,657.405 L 22.293,664.488 L -36.117,664.488 L -36.117,657.405 z"
         id="path4888" />
    </clipPath>
    <clipPath
       id="clipPath4878">
      <path
         d="M -36.117,657.405 L 22.293,657.405 L 22.293,664.488 L -36.117,664.488 L -36.117,657.405 z"
         id="path4880" />
    </clipPath>
    <clipPath
       id="clipPath4868">
      <path
         d="M -56.916,657.405 L 480.267,657.405 L 480.267,664.488 L -56.916,664.488 L -56.916,657.405 z"
         id="path4870" />
    </clipPath>
    <clipPath
       id="clipPath4850">
      <path
         d="M -638.505,812.124 L 637.083,812.124 L 637.083,-38.268 L -638.505,-38.268 L -638.505,812.124 z"
         id="path4852" />
    </clipPath>
    <clipPath
       id="clipPath4842">
      <path
         d="M -638.505,812.124 L 637.083,812.124 L 637.083,-38.268 L -638.505,-38.268 L -638.505,812.124 z"
         id="path4844" />
    </clipPath>
    <clipPath
       id="clipPath4834">
      <path
         d="M 0,-38.268 L 625.986,-38.268 L 625.986,812.124 L 0,812.124 L 0,-38.268 z"
         id="path4836" />
    </clipPath>
    <clipPath
       id="clipPath4824">
      <path
         d="M 0,0 L 595.278,0 L 595.278,779.526 L 0,779.526 L 0,0 z"
         id="path4826" />
    </clipPath>
    <clipPath
       id="clipPath4816">
      <path
         d="M 0,0 L 595.276,0 L 595.276,779.528 L 0,779.528 L 0,0 z"
         id="path4818" />
    </clipPath>
    <clipPath
       id="clipPath8672">
      <path
         d="M 0.03,841.98 L 595.05,841.98 L 595.05,0 L 0.03,0 L 0.03,841.98 z"
         id="path8674" />
    </clipPath>
    <clipPath
       id="clipPath8664">
      <path
         d="M 0,842 L 595.276,842 L 595.276,0.11 L 0,0.11 L 0,842 z"
         id="path8666" />
    </clipPath>
    <clipPath
       id="clipPath8656">
      <path
         d="M 407.48,65.307 L 518.032,65.307 L 518.032,34.126 L 407.48,34.126 L 407.48,65.307 z"
         id="path8658" />
    </clipPath>
    <clipPath
       id="clipPath8821">
      <path
         d="M 360,106.963 L 537,106.963 L 537,190.963 L 360,190.963 L 360,106.963 z"
         id="path8823" />
    </clipPath>
    <clipPath
       id="clipPath9173">
      <path
         d="M 1023.572,801.865 L 1069.32,801.865 L 1069.32,776.987 L 1023.572,776.987 L 1023.572,801.865 z"
         id="path9175" />
    </clipPath>
    <clipPath
       id="clipPath9165">
      <path
         d="M 1023.307,771.472 L 1176.292,771.472 L 1176.292,801.989 L 1023.307,801.989 L 1023.307,771.472 z"
         id="path9167" />
    </clipPath>
    <clipPath
       id="clipPath9155">
      <path
         d="M 398.268,771.472 L 551.253,771.472 L 551.253,801.989 L 398.268,801.989 L 398.268,771.472 z"
         id="path9157" />
    </clipPath>
    <clipPath
       id="clipPath9147">
      <path
         d="M 0,0 L 1220.315,0 L 1220.315,841.89 L 0,841.89 L 0,0 z"
         id="path9149" />
    </clipPath>
    <clipPath
       id="clipPath9400">
      <path
         d="M -316.714,-409.878 L -174.982,-409.878 L -174.982,630.58 L -316.714,630.58 L -316.714,-409.878 z"
         id="path9402" />
    </clipPath>
    <clipPath
       id="clipPath9392">
      <path
         d="M -316.714,-409.878 L -174.982,-409.878 L -174.982,630.58 L -316.714,630.58 L -316.714,-409.878 z"
         id="path9394" />
    </clipPath>
    <clipPath
       id="clipPath9384">
      <path
         d="M -14.173,-14.173 L 133.955,-14.173 L 133.955,856.063 L -14.173,856.063 L -14.173,-14.173 z"
         id="path9386" />
    </clipPath>
    <clipPath
       id="clipPath9376">
      <path
         d="M -1179.498,269.51 L -35.955,269.51 L -35.955,-1315.529 L -1179.498,-1315.529 L -1179.498,269.51 z"
         id="path9378" />
    </clipPath>
    <clipPath
       id="clipPath9368">
      <path
         d="M -14.173,-14.173 L 595.276,-14.173 L 595.276,856.063 L -14.173,856.063 L -14.173,-14.173 z"
         id="path9370" />
    </clipPath>
    <clipPath
       id="clipPath9360">
      <path
         d="M 0,0 L 595.276,0 L 595.276,841.89 L 0,841.89 L 0,0 z"
         id="path9362" />
    </clipPath>
    <clipPath
       id="clipPath19120">
      <path
         d="M 0.03,1191.03 L 842.01,1191.03 L 842.01,0.03 L 0.03,0.03 L 0.03,1191.03 z"
         id="path19122" />
    </clipPath>
    <clipPath
       id="clipPath19112">
      <path
         d="M -1,894 L 843,894 L 843,297 L -1,297 L -1,894 z"
         id="path19114" />
    </clipPath>
    <clipPath
       id="clipPath19010">
      <path
         d="M 0.03,1191.03 L 842.01,1191.03 L 842.01,0.03 L 0.03,0.03 L 0.03,1191.03 z"
         id="path19012" />
    </clipPath>
    <clipPath
       id="clipPath19002">
      <path
         d="M -1,894 L 843,894 L 843,297 L -1,297 L -1,894 z"
         id="path19004" />
    </clipPath>
    <clipPath
       id="clipPath18994">
      <path
         d="M 730.77,521.53 L 842,521.53 L 842,296.87 L 730.77,296.87 L 730.77,521.53 z"
         id="path18996" />
    </clipPath>
    <clipPath
       id="clipPath19667">
      <path
         d="M 609.398,373.89 L 845.281,373.89 L 845.281,518.701 L 609.398,518.701 L 609.398,373.89 z"
         id="path19669" />
    </clipPath>
    <clipPath
       id="clipPath19659">
      <path
         d="M -729.812,-485.289 L -729.812,370.065 L -124.615,370.065 L -124.615,-485.289 L -729.812,-485.289 z"
         id="path19661" />
    </clipPath>
    <clipPath
       id="clipPath19651">
      <path
         d="M 595.276,-9 L 1199.552,-9 L 1199.552,850.89 L 595.276,850.89 L 595.276,-9 z"
         id="path19653" />
    </clipPath>
    <clipPath
       id="clipPath19643">
      <path
         d="M 0,0 L 1190.551,0 L 1190.551,841.89 L 0,841.89 L 0,0 z"
         id="path19645" />
    </clipPath>
  </defs>
  <g
     transform="translate(-3120.8191,714.86664)"
     id="layer1">
    <g
       transform="matrix(4.6758595,0,0,4.6758595,-11436.26,1545.7736)"
       id="g20028"
       style="fill:#d40000">
      <path
         d="M 3137.3592,-424.61602 C 3137.3592,-420.81732 3135.803,-415.73102 3131.2042,-415.73102 C 3128.8967,-415.73102 3127.5317,-416.91482 3127.5317,-419.27602 C 3127.5317,-423.72482 3134.0654,-424.61602 3137.3592,-424.61602 M 3143.9555,-411.57232 L 3143.9555,-432.64352 C 3143.9555,-439.47852 3139.4705,-441.83852 3133.1917,-441.83852 C 3127.0442,-441.83852 3121.928,-439.22982 3121.928,-432.45732 L 3128.6605,-432.45732 C 3128.6605,-435.38222 3130.2129,-436.99602 3133.1917,-436.99602 C 3136.6104,-436.99602 3137.3592,-434.50852 3137.3592,-431.58732 L 3137.3592,-428.65852 C 3130.6417,-428.46982 3120.8192,-427.53482 3120.8192,-418.64482 C 3120.8192,-413.61232 3124.803,-410.87732 3129.5192,-410.87732 C 3132.7604,-410.87732 3135.7379,-411.93732 3137.2417,-414.98232 L 3137.3592,-414.98232 L 3137.3592,-411.57232 L 3143.9555,-411.57232"
         id="path19671"
         style="fill:#d40000;fill-opacity:1;fill-rule:nonzero;stroke:none" />
      <path
         d="M 3164.4179,-431.01732 C 3164.4179,-434.06602 3163.5479,-436.99602 3159.9429,-436.99602 C 3155.5854,-436.99602 3154.283,-432.45732 3154.283,-428.89982 C 3154.283,-421.43852 3158.6242,-415.73102 3166.4792,-415.73102 C 3168.1467,-415.73102 3169.8204,-415.91602 3171.4429,-416.49722 L 3171.4429,-412.24982 C 3168.6392,-411.36852 3165.7255,-410.87732 3162.7967,-410.87732 C 3152.2317,-410.87732 3146.9454,-417.35482 3146.9454,-427.66482 C 3146.9454,-436.25852 3151.6205,-441.83852 3160.5042,-441.83852 C 3167.7192,-441.83852 3171.7529,-438.30602 3171.7529,-431.01732 L 3164.4179,-431.01732"
         id="path19673"
         style="fill:#d40000;fill-opacity:1;fill-rule:nonzero;stroke:none" />
      <path
         d="M 3190.9254,-431.01732 C 3190.9254,-434.06602 3190.053,-436.99602 3186.4542,-436.99602 C 3182.1054,-436.99602 3180.7867,-432.45732 3180.7867,-428.89982 C 3180.7867,-421.43852 3185.1567,-415.73102 3192.9829,-415.73102 C 3194.6567,-415.73102 3196.3354,-415.91602 3197.9492,-416.49722 L 3197.9492,-412.24982 C 3195.1617,-411.36852 3192.2342,-410.87732 3189.3104,-410.87732 C 3178.7392,-410.87732 3173.4617,-417.35482 3173.4617,-427.66482 C 3173.4617,-436.25852 3178.1304,-441.83852 3187.0079,-441.83852 C 3194.2292,-441.83852 3198.2692,-438.30602 3198.2692,-431.01732 L 3190.9254,-431.01732"
         id="path19675"
         style="fill:#d40000;fill-opacity:1;fill-rule:nonzero;stroke:none" />
      <path
         d="M 3217.9767,-432.33102 L 3207.1605,-432.33102 C 3207.4667,-435.32102 3209.7779,-437.44482 3212.7467,-437.44482 C 3215.9267,-437.44482 3217.9767,-435.50232 3217.9767,-432.33102 M 3224.5054,-428.15352 L 3224.5054,-429.84732 C 3224.5054,-437.06352 3220.783,-441.83852 3213.2517,-441.83852 C 3204.4254,-441.83852 3200.5642,-436.30852 3200.5642,-427.91222 C 3200.5642,-418.15482 3204.9767,-410.87732 3215.4817,-410.87732 C 3218.283,-410.87732 3221.0842,-411.19352 3223.7504,-412.06482 L 3223.7504,-416.82972 C 3222.018,-416.22732 3219.9579,-415.73102 3218.1042,-415.73102 C 3211.3829,-415.73102 3206.9692,-421.86482 3206.9692,-428.15352 L 3224.5054,-428.15352"
         id="path19677"
         style="fill:#d40000;fill-opacity:1;fill-rule:nonzero;stroke:none" />
      <path
         d="M 3244.9592,-411.57232 L 3244.9592,-428.46982 C 3244.9592,-429.89982 3245.0817,-433.69982 3243.9067,-434.81972 C 3243.3992,-435.32102 3242.6042,-435.38222 3241.9129,-435.38222 C 3236.9379,-435.38222 3234.9467,-428.35352 3234.9467,-424.35982 L 3234.9467,-411.57232 L 3228.0454,-411.57232 L 3228.0454,-441.16232 L 3234.9467,-441.16232 L 3234.9467,-435.62982 L 3235.0717,-435.62982 C 3236.6304,-439.41852 3239.603,-441.83852 3243.8417,-441.83852 C 3249.5017,-441.83852 3251.8655,-437.17602 3251.8655,-432.07972 L 3251.8655,-411.57232 L 3244.9592,-411.57232"
         id="path19679"
         style="fill:#d40000;fill-opacity:1;fill-rule:nonzero;stroke:none" />
      <path
         d="M 3266.2267,-436.37482 L 3266.2267,-422.37982 C 3266.2267,-418.88732 3266.5892,-415.73102 3270.8967,-415.73102 C 3271.9442,-415.73102 3273.0117,-415.96602 3274.0679,-416.22732 L 3274.0679,-411.36852 C 3272.1917,-411.06482 3270.2767,-410.87732 3268.4042,-410.87732 C 3262.3554,-410.87732 3259.3404,-412.87482 3259.3404,-419.01982 L 3259.3404,-436.37482 L 3253.5492,-436.37482 L 3253.5492,-441.16232 L 3259.3404,-441.16232 L 3259.3404,-448.17482 L 3266.2267,-450.98102 L 3266.2267,-441.16232 L 3274.9967,-441.16232 L 3274.9967,-436.37482 L 3266.2267,-436.37482"
         id="path19681"
         style="fill:#d40000;fill-opacity:1;fill-rule:nonzero;stroke:none" />
      <path
         d="M 3294.973,-411.57232 L 3294.973,-417.09232 L 3294.8529,-417.09232 C 3293.2804,-413.36982 3290.2505,-410.87732 3286.0817,-410.87732 C 3280.4229,-410.87732 3278.0542,-415.53602 3278.0542,-420.62982 L 3278.0542,-441.16232 L 3284.9604,-441.16232 L 3284.9604,-424.23602 C 3284.9604,-422.80352 3284.8404,-419.01982 3286.0104,-417.90232 C 3286.5179,-417.40102 3287.3179,-417.35482 3288.0117,-417.35482 C 3292.9742,-417.35482 3294.973,-424.35982 3294.973,-428.35352 L 3294.973,-441.16232 L 3301.8854,-441.16232 L 3301.8854,-411.57232 L 3294.973,-411.57232"
         id="path19683"
         style="fill:#d40000;fill-opacity:1;fill-rule:nonzero;stroke:none" />
      <path
         d="M 3313.1267,-424.54482 L 3313.1267,-411.57232 L 3306.2304,-411.57232 L 3306.2304,-441.16232 L 3313.1267,-441.16232 L 3313.1267,-435.69732 L 3313.2479,-435.69732 C 3315.5592,-439.78102 3317.8554,-441.83852 3322.8317,-441.83852 L 3322.8317,-434.63232 C 3315.7467,-434.63232 3313.1267,-431.52482 3313.1267,-424.54482"
         id="path19685"
         style="fill:#d40000;fill-opacity:1;fill-rule:nonzero;stroke:none" />
      <path
         d="M 3341.6242,-432.33102 L 3330.8105,-432.33102 C 3331.1254,-435.32102 3333.4192,-437.44482 3336.4029,-437.44482 C 3339.578,-437.44482 3341.6242,-435.50232 3341.6242,-432.33102 M 3348.1554,-428.15352 L 3348.1554,-429.84732 C 3348.1554,-437.06352 3344.4317,-441.83852 3336.9029,-441.83852 C 3328.0767,-441.83852 3324.2092,-436.30852 3324.2092,-427.91222 C 3324.2092,-418.15482 3328.6304,-410.87732 3339.1267,-410.87732 C 3341.9404,-410.87732 3344.7329,-411.19352 3347.4054,-412.06482 L 3347.4054,-416.82972 C 3345.6754,-416.22732 3343.6155,-415.73102 3341.7579,-415.73102 C 3335.0379,-415.73102 3330.6167,-421.86482 3330.6167,-428.15352 L 3348.1554,-428.15352"
         id="path19687"
         style="fill:#d40000;fill-opacity:1;fill-rule:nonzero;stroke:none" />
      <path
         d="M 3253.5355,-475.88982 L 3253.5355,-471.01352 C 3253.5355,-471.01352 3267.3255,-465.68352 3269.3104,-464.91982 C 3267.3255,-464.15732 3253.5355,-458.83852 3253.5355,-458.83852 L 3253.5355,-453.98102 L 3275.0017,-462.68852 L 3275.0017,-467.16602 L 3253.5355,-475.88982"
         id="path19689"
         style="fill:#d40000;fill-opacity:1;fill-rule:nonzero;stroke:none" />
    </g>
  </g>
</svg>
